<svg width="40" height="40" viewBox="0 0 40 40" fill="none" xmlns="http://www.w3.org/2000/svg">
<path d="M17.134 0.894455C13.5946 1.35412 10.5761 2.59522 7.63427 4.79395C6.69962 5.49111 4.68475 7.50597 3.9876 8.44063C1.93442 11.191 0.662684 14.1558 0.149391 17.4041C-0.0497971 18.6605 -0.0497971 22.1233 0.149391 23.3797C0.7776 27.3558 2.59328 31.0255 5.35893 33.9214C8.3774 37.0778 12.0547 39.0313 16.3986 39.7898C17.7316 40.0196 20.5585 40.0733 21.9682 39.8894C31.0695 38.7479 38.1331 31.5848 39.1213 22.4834C39.2439 21.3725 39.1826 18.4 39.0141 17.3735C37.6044 8.68578 30.6788 1.96701 22.0371 0.894455C20.888 0.756557 18.1989 0.756557 17.134 0.894455ZM18.4364 4.5871C18.4364 6.24956 18.49 6.4181 19.0723 6.67858C19.4783 6.87011 19.6928 6.87011 20.0989 6.67858C20.6811 6.4181 20.7347 6.24956 20.7347 4.5871V3.13916L21.2174 3.19278C24.55 3.54519 27.6144 4.77863 30.2192 6.80882C30.5639 7.07695 30.8474 7.32211 30.8474 7.35275C30.8474 7.3834 30.4643 7.78944 29.997 8.2491C29.0853 9.16077 28.8555 9.49786 28.8555 9.94986C28.8555 10.5781 29.2845 11.0454 29.9051 11.099C30.449 11.1527 30.7401 10.9764 31.7284 9.9805C32.1881 9.51318 32.5941 9.13012 32.6247 9.13012C32.6554 9.13012 32.9005 9.41358 33.1687 9.75833C35.0839 12.2175 36.3097 15.1364 36.7081 18.1932C36.7694 18.6912 36.823 19.1278 36.823 19.1738C36.823 19.2121 36.2408 19.2428 35.3904 19.2428C33.7279 19.2428 33.5594 19.2964 33.2989 19.8786C33.1074 20.2847 33.1074 20.4992 33.2989 20.9052C33.5594 21.4875 33.7279 21.5411 35.3904 21.5411C36.2408 21.5411 36.823 21.5717 36.823 21.61C36.823 21.656 36.7694 22.0927 36.7081 22.5907C36.3097 25.6474 35.0839 28.5663 33.1687 31.0255C32.9005 31.3703 32.6554 31.6537 32.6247 31.6537C32.5941 31.6537 32.1881 31.2707 31.7284 30.8033C30.8167 29.8917 30.4796 29.6618 30.0276 29.6618C29.3994 29.6618 28.9321 30.0909 28.8708 30.7191C28.8248 31.2477 28.9627 31.4775 29.997 32.5194L30.8857 33.4234L30.5792 33.6916C28.8631 35.1625 26.4193 36.4189 23.8758 37.1237C21.4396 37.7979 18.107 37.8132 15.4869 37.162C13.0124 36.5492 10.3693 35.2161 8.59191 33.6916L8.28547 33.4234L9.17415 32.5194C10.2084 31.4775 10.3463 31.2477 10.3003 30.7191C10.239 30.0909 9.77172 29.6618 9.14351 29.6618C8.6915 29.6618 8.35441 29.8917 7.44275 30.8033C6.98308 31.2707 6.57704 31.6537 6.5464 31.6537C6.51575 31.6537 6.2706 31.3703 6.00246 31.0178C3.95695 28.3978 2.78481 25.4636 2.38643 21.9778L2.34046 21.5411H3.78075C5.4432 21.5411 5.61175 21.4875 5.87222 20.9052C6.06375 20.4992 6.06375 20.2847 5.87222 19.8786C5.61175 19.2964 5.4432 19.2428 3.78075 19.2428H2.34046L2.38643 18.7984C2.78481 15.3203 3.95695 12.3861 6.00246 9.75833C6.2706 9.41358 6.51575 9.13012 6.5464 9.13012C6.57704 9.13012 6.98308 9.51318 7.44275 9.9805C8.43103 10.9764 8.72215 11.1527 9.26608 11.099C9.88663 11.0454 10.3157 10.5781 10.3157 9.94986C10.3157 9.49786 10.0858 9.16077 9.17415 8.2491C8.70683 7.78944 8.32377 7.3834 8.32377 7.35275C8.32377 7.32211 8.60723 7.07695 8.95964 6.80882C11.258 5.00846 13.993 3.81333 16.8276 3.35366C17.6473 3.21577 17.9231 3.18512 18.2296 3.16214L18.4364 3.15448V4.5871Z" fill="#115740"/>
<path d="M20.8697 25.2944C22.4993 24.386 23.1464 22.5568 22.4606 20.8013C22.0505 19.7688 21.367 19.0947 20.2797 18.673C18.9012 18.1328 15.4482 17.5063 11.1962 17.0206C10.0459 16.8853 9.99034 16.8901 9.59324 17.0743C9.23909 17.2422 9.16683 17.3107 9.03228 17.6244C8.89056 17.9408 8.8848 18.0332 9.00084 18.4235C9.13326 18.8568 9.14861 18.8755 10.1543 19.7711C12.3466 21.7146 14.0851 23.1343 15.5759 24.2056C16.884 25.1416 17.6611 25.5668 18.3191 25.7013C19.1217 25.8708 20.1331 25.7065 20.8697 25.2944ZM18.828 23.359C18.2607 23.2474 15.695 21.4216 13.9865 19.9086C13.8027 19.7491 13.7516 19.744 15.148 19.9658C17.5182 20.3328 19.4299 20.8091 19.8261 21.1172C20.3431 21.5268 20.4796 22.0569 20.2255 22.6375C19.9615 23.2138 19.4536 23.473 18.828 23.359Z" fill="#115740"/>
<path d="M15.4487 30.3589C14.7286 30.6501 14.4758 31.6154 14.9661 32.1976C15.3568 32.6649 15.2189 32.6496 19.6087 32.6496H23.6231L23.8759 32.4734C24.2973 32.1899 24.4429 31.9295 24.4429 31.4621C24.4429 31.0101 24.3126 30.765 23.9219 30.4739C23.7151 30.313 23.6231 30.313 19.6777 30.2976C17.1035 30.29 15.5713 30.313 15.4487 30.3589Z" fill="#115740"/>
</svg>
