<svg width="40" height="40" viewBox="0 0 40 40" fill="none" xmlns="http://www.w3.org/2000/svg">
<path d="M17.134 0.103439C13.5946 0.563107 10.5761 1.8042 7.63427 4.00293C6.69962 4.70009 4.68475 6.71496 3.9876 7.64961C1.93442 10.3999 0.662684 13.3648 0.149391 16.6131C-0.0497971 17.8695 -0.0497971 21.3323 0.149391 22.5887C0.7776 26.5648 2.59328 30.2345 5.35893 33.1304C8.3774 36.2868 12.0547 38.2403 16.3986 38.9988C17.7316 39.2286 20.5585 39.2822 21.9682 39.0984C31.0695 37.9569 38.1331 30.7938 39.1213 21.6924C39.2439 20.5815 39.1826 17.609 39.0141 16.5824C37.6044 7.89476 30.6788 1.17599 22.0371 0.103439C20.888 -0.0344582 18.1989 -0.0344582 17.134 0.103439ZM18.4364 3.79609C18.4364 5.45854 18.49 5.62708 19.0723 5.88756C19.4783 6.07909 19.6928 6.07909 20.0989 5.88756C20.6811 5.62708 20.7347 5.45854 20.7347 3.79609V2.34814L21.2174 2.40177C24.55 2.75418 27.6144 3.98761 30.2192 6.0178C30.5639 6.28594 30.8474 6.53109 30.8474 6.56174C30.8474 6.59238 30.4643 6.99842 29.997 7.45808C29.0853 8.36975 28.8555 8.70684 28.8555 9.15884C28.8555 9.78705 29.2845 10.2544 29.9051 10.308C30.449 10.3616 30.7401 10.1854 31.7284 9.18949C32.1881 8.72216 32.5941 8.33911 32.6247 8.33911C32.6554 8.33911 32.9005 8.62257 33.1687 8.96732C35.0839 11.4265 36.3097 14.3454 36.7081 17.4022C36.7694 17.9001 36.823 18.3368 36.823 18.3828C36.823 18.4211 36.2408 18.4517 35.3904 18.4517C33.7279 18.4517 33.5594 18.5054 33.2989 19.0876C33.1074 19.4937 33.1074 19.7082 33.2989 20.1142C33.5594 20.6964 33.7279 20.7501 35.3904 20.7501C36.2408 20.7501 36.823 20.7807 36.823 20.819C36.823 20.865 36.7694 21.3017 36.7081 21.7996C36.3097 24.8564 35.0839 27.7753 33.1687 30.2345C32.9005 30.5792 32.6554 30.8627 32.6247 30.8627C32.5941 30.8627 32.1881 30.4796 31.7284 30.0123C30.8167 29.1007 30.4796 28.8708 30.0276 28.8708C29.3994 28.8708 28.9321 29.2998 28.8708 29.9281C28.8248 30.4567 28.9627 30.6865 29.997 31.7284L30.8857 32.6324L30.5792 32.9006C28.8631 34.3715 26.4193 35.6279 23.8758 36.3327C21.4396 37.0069 18.107 37.0222 15.4869 36.371C13.0124 35.7581 10.3693 34.4251 8.59191 32.9006L8.28547 32.6324L9.17415 31.7284C10.2084 30.6865 10.3463 30.4567 10.3003 29.9281C10.239 29.2998 9.77172 28.8708 9.14351 28.8708C8.6915 28.8708 8.35441 29.1007 7.44275 30.0123C6.98308 30.4796 6.57704 30.8627 6.5464 30.8627C6.51575 30.8627 6.2706 30.5792 6.00246 30.2268C3.95695 27.6067 2.78481 24.6725 2.38643 21.1868L2.34046 20.7501H3.78075C5.4432 20.7501 5.61175 20.6964 5.87222 20.1142C6.06375 19.7082 6.06375 19.4937 5.87222 19.0876C5.61175 18.5054 5.4432 18.4517 3.78075 18.4517H2.34046L2.38643 18.0074C2.78481 14.5293 3.95695 11.5951 6.00246 8.96732C6.2706 8.62257 6.51575 8.33911 6.5464 8.33911C6.57704 8.33911 6.98308 8.72216 7.44275 9.18949C8.43103 10.1854 8.72215 10.3616 9.26608 10.308C9.88663 10.2544 10.3157 9.78705 10.3157 9.15884C10.3157 8.70684 10.0858 8.36975 9.17415 7.45808C8.70683 6.99842 8.32377 6.59238 8.32377 6.56174C8.32377 6.53109 8.60723 6.28594 8.95964 6.0178C11.258 4.21745 13.993 3.02232 16.8276 2.56265C17.6473 2.42475 17.9231 2.39411 18.2296 2.37112L18.4364 2.36346V3.79609Z" fill="#115740"/>
<path d="M15.7342 23.6922C16.8202 25.2093 18.7106 25.6465 20.3778 24.7675C21.3575 24.2438 21.9505 23.4889 22.2471 22.361C22.6288 20.9305 22.8628 17.4289 22.867 13.1492C22.8721 11.991 22.861 11.9364 22.6333 11.5625C22.4267 11.2295 22.3504 11.1654 22.0236 11.067C21.6933 10.9618 21.6008 10.9664 21.226 11.1257C20.8104 11.306 20.7935 11.3234 20.0168 12.4234C18.3323 14.8205 17.1173 16.7077 16.2205 18.3096C15.4375 19.7147 15.1025 20.5347 15.0429 21.2036C14.9648 22.0202 15.2419 23.0067 15.7342 23.6922ZM17.4275 21.4457C17.4746 20.8694 19.0001 18.1147 20.3114 16.2468C20.4492 16.0462 20.4485 15.9948 20.3852 17.4074C20.2872 19.8038 20.029 21.7569 19.7675 22.1853C19.4186 22.745 18.9073 22.9404 18.3017 22.7532C17.6994 22.5557 17.3847 22.0802 17.4275 21.4457Z" fill="#115740"/>
<path d="M15.4486 29.5679C14.7285 29.859 14.4757 30.8243 14.966 31.4066C15.3567 31.8739 15.2188 31.8586 19.6086 31.8586H23.623L23.8758 31.6824C24.2972 31.3989 24.4427 31.1384 24.4427 30.6711C24.4427 30.2191 24.3125 29.974 23.9218 29.6828C23.7149 29.522 23.623 29.522 19.6775 29.5066C17.1034 29.499 15.5712 29.522 15.4486 29.5679Z" fill="#115740"/>
</svg>
