<svg width="50" height="50" viewBox="0 0 50 50" fill="none" xmlns="http://www.w3.org/2000/svg">
<g clip-path="url(#clip0_5_205)">
<path d="M25 50C38.8071 50 50 38.8071 50 25C50 11.1929 38.8071 0 25 0C11.1929 0 0 11.1929 0 25C0 38.8071 11.1929 50 25 50Z" fill="#1E5140"/>
<path fill-rule="evenodd" clip-rule="evenodd" d="M11.0923 6.51734C11.4764 6.02059 12.1905 5.92928 12.6872 6.31338L25.5984 16.2969C26.0951 16.681 26.1864 17.395 25.8023 17.8918C25.4182 18.3885 24.7042 18.4798 24.2074 18.0957L11.2963 8.11224C10.7995 7.72814 10.7082 7.01408 11.0923 6.51734Z" fill="white"/>
<path fill-rule="evenodd" clip-rule="evenodd" d="M38.6935 6.49085C39.0786 6.98686 38.9886 7.70109 38.4926 8.08614L25.6001 18.0944C25.104 18.4794 24.3898 18.3895 24.0048 17.8935C23.6197 17.3975 23.7097 16.6832 24.2057 16.2982L37.0983 6.28992C37.5943 5.90488 38.3085 5.99484 38.6935 6.49085Z" fill="white"/>
<path fill-rule="evenodd" clip-rule="evenodd" d="M38.708 21.7779C39.0931 22.2738 39.0033 22.9881 38.5073 23.3732L24.921 33.9239L11.3129 23.4015C10.8161 23.0174 10.7248 22.3034 11.1089 21.8066C11.493 21.3099 12.2071 21.2186 12.7038 21.6027L24.918 31.0472L37.1127 21.5772C37.6086 21.1921 38.3228 21.2819 38.708 21.7779Z" fill="white"/>
<path fill-rule="evenodd" clip-rule="evenodd" d="M24.8934 6.06348C25.5213 6.06286 26.0309 6.57139 26.0315 7.19931L26.0666 43.7593C26.0672 44.3872 25.5586 44.8967 24.9307 44.8973C24.3028 44.8979 23.7933 44.3893 23.7927 43.7614L23.7576 7.20154C23.757 6.57362 24.2655 6.06409 24.8934 6.06348Z" fill="white"/>
</g>
<defs>
<clipPath id="clip0_5_205">
<rect width="50" height="50" fill="white"/>
</clipPath>
</defs>
</svg>
