<svg width="113" height="34" viewBox="0 0 113 34" fill="none" xmlns="http://www.w3.org/2000/svg">
<g clip-path="url(#clip0_78_81)">
<path d="M86.7112 7.59223C88.8314 7.59223 90.5502 5.89265 90.5502 3.79612C90.5502 1.69958 88.8314 0 86.7112 0C84.591 0 82.8722 1.69958 82.8722 3.79612C82.8722 5.89265 84.591 7.59223 86.7112 7.59223Z" fill="#E4032E"/>
<path d="M97.8944 7.59223C100.015 7.59223 101.733 5.89265 101.733 3.79612C101.733 1.69958 100.015 0 97.8944 0C95.7742 0 94.0554 1.69958 94.0554 3.79612C94.0554 5.89265 95.7742 7.59223 97.8944 7.59223Z" fill="#E4032E"/>
<path d="M109.161 7.59223C111.281 7.59223 113 5.89265 113 3.79612C113 1.69958 111.281 0 109.161 0C107.041 0 105.322 1.69958 105.322 3.79612C105.322 5.89265 107.041 7.59223 109.161 7.59223Z" fill="#E4032E"/>
<path fill-rule="evenodd" clip-rule="evenodd" d="M6.25923 19.7232C6.25923 17.7426 6.75997 15.597 9.09675 15.597C11.4335 15.597 11.9343 17.7426 11.9343 19.7232C11.9343 21.7037 11.4335 23.8494 9.09675 23.8494C6.75997 23.8494 6.25923 21.7037 6.25923 19.7232ZM0 33.5872H6.5096V26.3251H6.59306C7.59454 27.728 9.26366 28.5533 11.2666 28.5533C16.9417 28.5533 18.5273 23.7669 18.5273 19.8057C18.5273 15.597 16.1905 10.8931 11.4335 10.8931C8.26219 10.8931 7.26071 12.0484 6.42615 13.1212H6.25923V11.3057H0V33.5872ZM25.788 17.8251C26.1219 16.0096 27.2068 15.0193 29.1263 15.0193C30.7954 15.0193 31.9638 16.2571 31.9638 17.8251H25.788ZM38.223 21.2086C38.223 14.6892 35.3021 10.9756 28.5421 10.9756C23.2009 10.9756 19.6123 14.9368 19.6123 19.8057C19.6123 25.4173 23.7016 28.5533 29.1263 28.5533C32.9653 28.5533 36.5539 26.9028 37.8892 23.2717H31.8804C31.3796 24.097 30.2112 24.427 29.2098 24.427C27.2068 24.427 26.0384 23.1067 25.8715 21.1261H38.223V21.2086ZM67.0155 11.3882H60.339L58.0022 21.7037H57.8353L55.582 11.3882H49.5731L47.4033 21.7037H47.3198L44.8161 11.3882H38.0561L43.3973 28.1406H49.9904L52.4941 17.8251H52.5776L54.9978 28.1406H61.6743L67.0155 11.3882ZM78.1152 22.1164C78.0318 23.8494 76.8634 24.7571 75.3612 24.7571C74.1928 24.7571 73.3582 24.0144 73.3582 23.1892C73.3582 22.0338 74.1093 21.7037 75.5281 21.3736C76.4461 21.2086 77.2807 20.961 78.1152 20.5484V22.1164ZM84.291 17.495C84.291 14.2766 84.3745 10.9756 76.2792 10.9756C72.2733 10.9756 67.7666 11.7183 67.5163 16.5047H73.5251C73.5251 15.762 73.9424 14.7717 75.9454 14.7717C77.0303 14.7717 78.0318 15.1843 78.0318 16.3397C78.0318 17.4125 77.1137 17.6601 76.2792 17.8251C73.0244 18.4028 66.7651 18.1552 66.7651 23.4368C66.7651 26.9853 69.4358 28.4707 72.774 28.4707C74.8604 28.4707 76.8634 28.0581 78.1987 26.4902H78.2821C78.2821 26.9028 78.3656 27.6455 78.5325 28.0581H85.1256C84.3745 26.9853 84.3745 25.5824 84.3745 24.3445V17.495H84.291ZM92.3863 18.8979C92.3863 17.0824 93.3043 15.597 95.1403 15.597C97.0598 15.597 97.9779 17.0824 97.9779 18.8979C97.9779 20.796 97.7275 23.0241 95.3072 23.0241C92.9705 23.0241 92.3863 20.796 92.3863 18.8979ZM104.237 11.3882H97.7275V13.4513H97.644C96.8929 11.7183 95.0569 10.9756 93.2208 10.9756C88.3804 10.9756 85.8767 14.6067 85.8767 18.9804C85.8767 23.4368 88.13 27.1503 93.1374 27.1503C95.0569 27.1503 96.6425 26.3251 97.644 24.8397H97.7275V26.4076C97.7275 27.8105 97.3102 30.2863 95.1403 30.2863C94.3058 30.2863 93.6381 29.6261 93.2208 29.0484C93.0539 28.8834 92.887 28.6358 92.887 28.4707H86.4609C87.0451 33.0096 91.3013 34.0824 95.3072 34.0824C103.236 34.0824 104.154 29.3785 104.154 26.0775V11.3882H104.237Z" fill="#003863"/>
</g>
<defs>
<clipPath id="clip0_78_81">
<rect width="113" height="34" fill="white"/>
</clipPath>
</defs>
</svg>
